<svg width="16" height="16" viewBox="0 0 16 16" fill="none" xmlns="http://www.w3.org/2000/svg">
<path d="M12.6667 2.66699H3.33333C2.59695 2.66699 2 3.26395 2 4.00033V13.3337C2 14.07 2.59695 14.667 3.33333 14.667H12.6667C13.403 14.667 14 14.07 14 13.3337V4.00033C14 3.26395 13.403 2.66699 12.6667 2.66699Z" stroke="#464646" stroke-linecap="round" stroke-linejoin="round"/>
<path d="M10.6665 1.33301V3.99967" stroke="#464646" stroke-linecap="round" stroke-linejoin="round"/>
<path d="M5.3335 1.33301V3.99967" stroke="#464646" stroke-linecap="round" stroke-linejoin="round"/>
<path d="M2 6.66699H14" stroke="#464646" stroke-linecap="round" stroke-linejoin="round"/>
<line x1="10.5" y1="8.5" x2="11.5" y2="8.5" stroke="#464646"/>
<line x1="4.5" y1="8.5" x2="5.5" y2="8.5" stroke="#464646"/>
<line x1="6.5" y1="8.5" x2="7.5" y2="8.5" stroke="#464646"/>
<line x1="8.5" y1="8.5" x2="9.5" y2="8.5" stroke="#464646"/>
<line x1="10.5" y1="10.5" x2="11.5" y2="10.5" stroke="#464646"/>
<line x1="4.5" y1="10.5" x2="5.5" y2="10.5" stroke="#464646"/>
<line x1="6.5" y1="10.5" x2="7.5" y2="10.5" stroke="#464646"/>
<line x1="8.5" y1="10.5" x2="9.5" y2="10.5" stroke="#464646"/>
<line x1="10.5" y1="12.5" x2="11.5" y2="12.5" stroke="#464646"/>
<line x1="4.5" y1="12.5" x2="5.5" y2="12.5" stroke="#464646"/>
<line x1="6.5" y1="12.5" x2="7.5" y2="12.5" stroke="#464646"/>
<line x1="8.5" y1="12.5" x2="9.5" y2="12.5" stroke="#464646"/>
</svg>
